<?xml version="1.0" encoding="UTF-8" standalone="no"?>
<svg id="svg4165" xmlns:rdf="http://www.w3.org/1999/02/22-rdf-syntax-ns#" xmlns="http://www.w3.org/2000/svg" height="45" width="72" version="1.1" xmlns:cc="http://creativecommons.org/ns#" xmlns:dc="http://purl.org/dc/elements/1.1/" viewBox="0 0 809.585 508.934" preserveAspectRatio="xMidYMid meet">
<g id="layer1" transform="translate(-860.6976,2.5192455)">
<path id="path4713" style="stroke-linejoin:round;fill-opacity:0;stroke:#404040;stroke-linecap:round;stroke-width:6" transform="matrix(2.0447426,0,0,2.9765258,627.30438,-479.53164)" d="m117.14286 266.64791 29.64794-51.99014 30.65975-51.39995 30.20081 51.67094 29.18379 52.2521-59.84876 0.3192z"/>
<path id="path4715" style="stroke-linejoin:round;stroke:#404040;stroke-linecap:round;stroke-width:6.34499645;fill:#404040" transform="matrix(2.3799351,0,0,2.058699,600.96415,-227.27401)" d="m163.07327 353.21268-23.8849-44.20151-26.23444-42.84877 50.22208 1.41582 50.22535-1.29531-26.33718 42.78569z"/>
<g id="flowRoot4719" style="fill:#404040" transform="matrix(1.4268419,0,0,1.2575943,582.92917,-132.56233)">
<path id="path5387" style="" d="m469.1416 237.36448v118.77441h-49.56055v-166.62597h64.5752q42.48047 0 66.52832 19.28711 28.56445 23.07128 28.56445 62.62207 0 37.84179-24.41406 61.76757-24.41406 23.92579-62.86621 23.92579-4.5166 0-14.77051-0.48829v-48.95019h7.93457q43.33496 0 43.33496-36.25488 0-34.05762-42.60254-34.05762h-16.72363z"/>
</g>
<flowRoot id="flowRoot4763" xml:space="preserve" style="letter-spacing:0px;font-size:40px;word-spacing:0px;font-family:sans-serif;line-height:125%;fill:#000000"><flowRegion id="flowRegion4765"><rect id="rect4767" y="498.07648" width="228.57143" x="437.14285" height="308.57144"/></flowRegion><flowPara id="flowPara4769"/></flowRoot>
<flowRoot id="flowRoot4771" xml:space="preserve" style="letter-spacing:0px;font-size:40px;word-spacing:0px;font-family:sans-serif;line-height:125%;fill:#000000"><flowRegion id="flowRegion4773"><rect id="rect4775" y="466.64792" width="477.14285" x="425.71429" height="385.71432"/></flowRegion><flowPara id="flowPara4783"/></flowRoot>
<g id="flowRoot4719-9" style="fill:#404040" transform="matrix(1.2915591,0,0,1.2342244,904.96313,-123.01153)">
<path id="path5390" d="m416.16309 356.13889v-120.11718q0-22.33887 13.5498-36.49903 13.54981-14.16015 35.15625-14.16015 25.63477 0 39.42871 23.55957 8.42285-12.69532 18.06641-18.06641 9.64355-5.49316 23.80371-5.49316 22.46094 0 34.42383 14.16015 11.96289 14.16016 11.96289 40.77149v115.84472h-49.56055v-108.39843q0-8.05665-1.34277-10.62012-1.22071-2.68555-5.12696-2.68555-7.32421 0-7.32421 12.45117v109.25293h-49.56055v-108.39843q0-7.93458-1.34278-10.62012-1.34277-2.68555-5.24902-2.68555-7.32422 0-7.32422 13.30567v108.39843h-49.56054z"/>
</g>
</g>
</svg>
